# Blender v2.66 (sub 1) OBJ File: 'consept.blend'
# www.blender.org
mtllib bomb.mtl
o Plane.001
v 4.700000 0.400000 -0.300000
v 4.300000 0.400000 -0.300000
v 4.700000 0.400000 -0.700000
v 4.300000 0.400000 -0.700000
v 4.700000 0.500000 -0.300000
v 4.300000 0.500000 -0.300000
v 4.700000 0.500000 -0.700000
v 4.300000 0.500000 -0.700000
v 4.580000 0.700000 -0.420000
v 4.420000 0.700000 -0.420000
v 4.580000 0.700000 -0.580000
v 4.420000 0.700000 -0.580000
v 4.580000 0.900000 -0.420000
v 4.420000 0.900000 -0.420000
v 4.580000 0.900000 -0.580000
v 4.420000 0.900000 -0.580000
v 4.700000 1.100000 -0.300000
v 4.300000 1.100000 -0.300000
v 4.700000 1.100000 -0.700000
v 4.300000 1.100000 -0.700000
v 4.700000 1.200000 -0.300000
v 4.300000 1.200000 -0.300000
v 4.700000 1.200000 -0.700000
v 4.300000 1.200000 -0.700000
vn -0.000000 -1.000000 0.000000
vn 0.000000 0.514496 -0.857493
vn 0.000000 -0.000000 -1.000000
vn 1.000000 0.000000 0.000000
vn -1.000000 -0.000000 0.000000
vn 0.000000 0.000000 1.000000
vn 0.857493 0.514495 0.000000
vn -0.857493 0.514495 0.000000
vn 0.000000 0.514496 0.857493
vn -0.857493 -0.514495 0.000000
vn 0.000000 -0.514496 0.857493
vn 0.000000 -0.514496 -0.857493
vn 0.857493 -0.514495 0.000000
vn 0.000000 1.000000 -0.000000
usemtl Material.001
s off
f 2//1 4//1 3//1 1//1
f 7//2 8//2 12//2 11//2
f 3//3 4//3 8//3 7//3
f 1//4 3//4 7//4 5//4
f 4//5 2//5 6//5 8//5
f 2//6 1//6 5//6 6//6
f 10//6 9//6 13//6 14//6
f 5//7 7//7 11//7 9//7
f 8//8 6//8 10//8 12//8
f 6//9 5//9 9//9 10//9
f 16//10 14//10 18//10 20//10
f 11//3 12//3 16//3 15//3
f 9//4 11//4 15//4 13//4
f 12//5 10//5 14//5 16//5
f 17//4 19//4 23//4 21//4
f 14//11 13//11 17//11 18//11
f 15//12 16//12 20//12 19//12
f 13//13 15//13 19//13 17//13
f 22//14 21//14 23//14 24//14
f 20//5 18//5 22//5 24//5
f 18//6 17//6 21//6 22//6
f 19//3 20//3 24//3 23//3
