# Blender v2.66 (sub 1) OBJ File: 'consept.blend'
# www.blender.org
mtllib deflingrHead.mtl
o Plane.005_Plane.006
v 4.600000 0.800000 -5.400000
v 4.400000 0.800000 -5.400000
v 4.600000 0.800000 -5.653257
v 4.400000 0.800000 -5.653257
v 4.900000 0.800000 -5.100000
v 4.900000 0.800000 -5.353257
v 4.100000 0.800000 -5.100000
v 4.100000 0.800000 -5.353257
v 4.500000 0.800000 -5.707973
v 4.500000 0.800000 -5.761230
v 4.600000 0.897336 -5.400000
v 4.400000 0.897336 -5.400000
v 4.600000 0.897336 -5.600000
v 4.400000 0.897336 -5.600000
v 4.900000 0.897336 -5.100000
v 4.900000 0.897336 -5.300000
v 4.100000 0.897336 -5.100000
v 4.100000 0.897336 -5.300000
v 4.500000 0.897336 -5.707973
v 4.500000 0.897336 -5.707973
v 4.600000 0.778379 -5.400000
v 4.400000 0.778379 -5.400000
v 4.600000 0.778379 -5.653257
v 4.400000 0.778379 -5.653257
v 4.900000 0.778379 -5.100000
v 4.900000 0.778379 -5.353257
v 4.100000 0.778379 -5.100000
v 4.100000 0.778379 -5.353257
v 4.500000 0.778379 -5.707973
v 4.500000 0.778379 -5.761230
v 4.600000 0.681043 -5.400000
v 4.400000 0.681043 -5.400000
v 4.600000 0.681043 -5.600000
v 4.400000 0.681043 -5.600000
v 4.900000 0.681043 -5.100000
v 4.900000 0.681043 -5.300000
v 4.100000 0.681043 -5.100000
v 4.100000 0.681043 -5.300000
v 4.500000 0.681043 -5.707973
v 4.500000 0.681043 -5.707973
vn -0.000000 -1.000000 0.000000
vn 0.000000 1.000000 -0.000000
vn -0.659470 0.360828 -0.659471
vn -1.000000 -0.000000 0.000000
vn 1.000000 0.000000 0.000000
vn -0.707107 0.000000 0.707107
vn 0.617287 0.207602 -0.758853
vn -0.687687 0.348480 -0.636905
vn 0.659470 0.360828 -0.659471
vn 0.000000 0.000000 1.000000
vn 0.707107 0.000000 0.707107
vn 0.659470 0.360828 0.659471
vn 0.707107 0.000000 -0.707107
vn -0.617287 0.207602 0.758853
vn 0.687687 0.348480 0.636905
vn -0.659470 0.360828 0.659471
vn 0.000000 0.000000 -1.000000
vn -0.707107 0.000000 -0.707107
usemtl Material.001
s off
f 2//1 4//1 3//1 1//1
f 1//1 3//1 6//1 5//1
f 4//1 2//1 7//1 8//1
f 4//1 10//1 9//1 3//1
f 12//2 11//2 13//2 14//2
f 11//2 15//2 16//2 13//2
f 14//2 18//2 17//2 12//2
f 14//2 13//2 19//2 20//2
f 4//3 8//3 18//3 14//3
f 8//4 7//4 17//4 18//4
f 9//5 10//5 20//5 19//5
f 1//6 5//6 15//6 11//6
f 3//7 9//7 19//7 13//7
f 5//5 6//5 16//5 15//5
f 10//8 4//8 14//8 20//8
f 6//9 3//9 13//9 16//9
f 2//10 1//10 11//10 12//10
f 7//11 2//11 12//11 17//11
f 22//1 24//1 23//1 21//1
f 21//1 23//1 26//1 25//1
f 24//1 22//1 27//1 28//1
f 24//1 30//1 29//1 23//1
f 32//2 31//2 33//2 34//2
f 31//2 35//2 36//2 33//2
f 34//2 38//2 37//2 32//2
f 34//2 33//2 39//2 40//2
f 24//12 28//12 38//12 34//12
f 28//5 27//5 37//5 38//5
f 29//4 30//4 40//4 39//4
f 21//13 25//13 35//13 31//13
f 23//14 29//14 39//14 33//14
f 25//4 26//4 36//4 35//4
f 30//15 24//15 34//15 40//15
f 26//16 23//16 33//16 36//16
f 22//17 21//17 31//17 32//17
f 27//18 22//18 32//18 37//18
