# Blender v2.66 (sub 1) OBJ File: 'consept.blend'
# www.blender.org
mtllib player.mtl
o Icosphere.004
v 0.000000 -0.300000 -0.000000
v 0.127597 -0.255196 0.092703
v -0.048737 -0.255196 0.149998
v 0.217082 -0.134166 0.157717
v 0.255194 -0.157721 -0.000000
v -0.157719 -0.255196 -0.000000
v -0.048737 -0.255196 -0.149999
v 0.127597 -0.255196 -0.092703
v -0.176336 -0.000000 0.242705
v -0.217082 0.134166 0.157718
v -0.294250 0.181858 0.213782
v -0.239019 -0.000000 0.328981
v 0.285317 -0.000000 0.092704
v 0.285317 0.000000 -0.092704
v 0.386741 0.000000 -0.125658
v 0.386741 -0.000000 0.125658
v 0.176336 -0.000000 0.242705
v 0.239019 -0.000000 0.328981
v -0.268328 -0.134165 -0.000000
v -0.285317 0.000000 -0.092704
v -0.386741 0.000000 -0.125658
v -0.363712 -0.181857 -0.000000
v -0.082916 -0.134166 0.255195
v 0.078861 -0.157721 0.242704
v 0.106894 -0.213787 0.328979
v -0.112391 -0.181859 0.345910
v 0.000000 -0.000000 0.300000
v -0.285317 -0.000000 0.092704
v -0.082916 -0.134166 -0.255195
v -0.176336 0.000000 -0.242705
v 0.000000 0.000000 -0.300000
v 0.217082 -0.134166 -0.157718
v 0.176336 0.000000 -0.242705
v 0.082916 0.134166 0.255195
v 0.206457 0.157721 0.149999
v 0.048737 0.255196 0.149999
v -0.078861 0.157721 0.242704
v -0.127597 0.255196 0.092703
v -0.217082 0.134166 -0.157717
v -0.255194 0.157721 0.000000
v -0.127597 0.255196 -0.092703
v 0.082916 0.134166 -0.255195
v -0.078861 0.157721 -0.242704
v 0.048737 0.255196 -0.149998
v 0.268328 0.134165 0.000000
v 0.206457 0.157721 -0.149999
v 0.157719 0.255196 0.000000
v 0.213784 0.345911 0.000000
v 0.279847 0.213787 0.203320
v 0.172954 -0.345912 0.125657
v -0.206457 -0.157721 0.149999
v -0.112391 -0.181859 -0.345910
v -0.239019 0.000000 -0.328981
v -0.206457 -0.157721 -0.149999
v 0.000000 -0.000000 0.406642
v 0.078861 -0.157721 -0.242704
v 0.239019 0.000000 -0.328981
v 0.112391 0.181859 -0.345910
v 0.345910 -0.213787 -0.000000
v 0.294250 -0.181859 0.213782
v 0.066062 0.345912 0.203319
v -0.106894 0.213787 0.328979
v 0.172954 -0.345912 -0.125657
v -0.386741 -0.000000 0.125658
v -0.279847 -0.213787 -0.203320
v -0.172954 0.345912 0.125657
v -0.345910 0.213787 0.000000
v -0.279847 -0.213787 0.203320
v -0.066062 -0.345912 0.203319
v 0.106894 -0.213787 -0.328979
v 0.000000 0.000000 -0.406642
v 0.363712 0.181857 0.000000
v -0.172954 0.345912 -0.125657
v -0.106894 0.213787 -0.328979
v -0.213784 -0.345911 -0.000000
v 0.000000 0.300000 0.000000
v 0.066062 0.345912 -0.203319
v 0.279847 0.213787 -0.203320
v 0.294250 -0.181858 -0.213782
v -0.066062 -0.345912 -0.203319
v -0.172954 0.345912 -0.125657
v 0.066062 0.345912 -0.203319
v -0.000001 0.613946 0.000000
v -0.172954 0.345912 0.125657
v 0.066062 0.345912 0.203319
v 0.213784 0.345911 0.000000
v 0.112391 0.181859 0.345910
v -0.294250 0.181859 -0.213782
v 0.000001 -0.613946 -0.000000
v -0.477641 0.060619 0.347024
v 0.182442 0.060620 -0.561500
v 0.182442 0.060619 0.561500
v 0.590397 0.060619 0.000000
v -0.477641 0.060620 -0.347024
vn 0.102381 -0.943523 0.315091
vn 0.700224 -0.661699 0.268032
vn -0.268033 -0.943523 0.194737
vn -0.268033 -0.943523 -0.194738
vn 0.102381 -0.943523 -0.315091
vn 0.688191 0.525730 0.500001
vn 0.000000 -1.000000 -0.000000
vn -0.262862 0.525724 0.809023
vn -0.162463 -0.850647 -0.500005
vn 0.802609 -0.125629 0.583126
vn -0.306568 -0.125630 0.943522
vn -0.992077 -0.125629 -0.000000
vn -0.306568 -0.125629 -0.943522
vn 0.802609 -0.125629 -0.583126
vn 0.408946 0.661699 0.628425
vn -0.471300 0.661699 0.583121
vn -0.700224 0.661699 -0.268032
vn 0.038532 0.661700 -0.748778
vn 0.724042 0.661695 -0.194737
vn -0.038532 -0.661700 0.748778
vn 0.723608 -0.447213 -0.525730
vn 0.471300 -0.661699 0.583121
vn 0.700224 -0.661699 -0.268032
vn 0.894430 0.447208 -0.000003
vn 0.331305 -0.943524 -0.000000
vn -0.724042 -0.661695 0.194737
vn 0.688191 0.525731 -0.500001
vn -0.408946 -0.661699 0.628425
vn -0.408946 -0.661699 -0.628425
vn -0.724042 -0.661695 -0.194737
vn 0.471300 -0.661699 -0.583121
vn -0.038531 -0.661700 -0.748778
vn 0.688191 0.525731 0.500001
vn 0.982246 -0.187598 -0.000000
vn -0.525735 -0.850648 -0.000000
vn 0.723605 -0.447209 0.525737
vn 0.303530 -0.187597 0.934172
vn -0.894430 -0.447208 -0.000000
vn -0.794656 -0.187596 0.577348
vn 0.425326 -0.850647 0.309025
vn -0.794656 -0.187596 -0.577348
vn -0.276392 -0.447206 0.850655
vn 0.276392 0.447210 0.850654
vn 0.303530 -0.187597 -0.934172
vn 0.574602 0.330389 0.748783
vn -0.162463 -0.850647 0.500005
vn 0.889697 0.330385 0.315095
vn -0.534577 0.330387 0.777864
vn -0.024746 0.330386 0.943522
vn -0.904989 0.330385 -0.268032
vn -0.262862 0.525724 -0.809023
vn -0.904989 0.330385 0.268032
vn -0.024746 0.330386 -0.943521
vn -0.894430 -0.447208 0.000003
vn -0.534577 0.330387 -0.777864
vn 0.889697 0.330386 -0.315095
vn -0.723608 0.447213 0.525730
vn 0.574602 0.330389 -0.748783
vn 0.268033 0.943523 0.194738
vn 0.724042 0.661695 0.194737
vn -0.102381 0.943523 0.315091
vn 0.038531 0.661700 0.748778
vn -0.331305 0.943524 0.000000
vn -0.700224 0.661699 0.268032
vn -0.102381 0.943523 -0.315091
vn -0.850659 0.525718 0.000000
vn -0.471300 0.661699 -0.583121
vn 0.268033 0.943523 -0.194737
vn -0.276392 -0.447210 -0.850654
vn 0.408946 0.661699 -0.628425
vn 0.904989 -0.330385 0.268031
vn 0.024746 -0.330386 0.943522
vn -0.889697 -0.330385 0.315094
vn -0.574601 -0.330387 -0.748784
vn 0.534576 -0.330386 -0.777865
vn 0.187594 -0.794658 0.577345
vn 0.607061 -0.794656 -0.000000
vn -0.491119 -0.794658 0.356821
vn -0.491119 -0.794658 -0.356821
vn 0.187594 -0.794658 -0.577345
vn 0.259657 -0.542190 0.799130
vn 0.904989 -0.330385 -0.268031
vn 0.840256 -0.542191 -0.000000
vn 0.534576 -0.330386 0.777865
vn 0.259657 -0.542190 -0.799130
vn -0.574601 -0.330387 0.748784
vn -0.679777 -0.542192 -0.493893
vn -0.889697 -0.330385 -0.315094
vn -0.679777 -0.542192 0.493893
vn 0.024746 -0.330385 -0.943522
vn 0.794655 0.187594 0.577349
vn -0.303531 0.187596 0.934172
vn -0.982246 0.187600 0.000000
vn -0.303531 0.187597 -0.934172
vn 0.794655 0.187595 -0.577348
vn 0.491119 0.794658 0.356821
vn -0.187594 0.794658 0.577345
vn -0.607061 0.794656 0.000000
vn -0.187594 0.794658 -0.577345
vn 0.491119 0.794658 -0.356821
vn -0.723608 0.447210 -0.525733
vn -0.723611 0.447203 -0.525734
vn 0.894430 0.447208 0.000003
vn -0.723603 0.447209 0.525740
vn -0.262864 0.525723 0.809023
vn -0.723611 0.447203 0.525734
vn -0.262864 0.525724 -0.809022
vn -0.723608 0.447210 0.525733
vn 0.276391 0.447210 -0.850653
vn 0.276398 0.447207 0.850652
vn 0.276390 0.447204 0.850657
vn 0.425326 -0.850648 0.309024
vn 0.276389 0.447212 0.850653
vn -0.723608 0.447213 -0.525730
vn 0.894430 0.447208 0.000000
vn 0.425326 -0.850648 -0.309024
vn 0.894427 0.447214 0.000000
vn 0.276392 0.447206 -0.850655
vn 0.276398 0.447208 -0.850652
vn 0.276389 0.447212 -0.850653
vn -0.162464 -0.850648 -0.500004
vn 0.276390 0.447204 -0.850657
vn -0.723605 0.447209 0.525737
vn -0.723603 0.447209 -0.525740
vn -0.276398 -0.447208 0.850652
vn 0.723608 -0.447213 0.525730
vn 0.723603 -0.447209 0.525740
vn 0.723605 -0.447209 -0.525737
vn -0.162464 -0.850648 0.500003
vn 0.723603 -0.447209 -0.525740
vn -0.276392 -0.447206 -0.850655
vn 0.425326 -0.850647 -0.309025
vn 0.276392 0.447206 0.850655
vn -0.894430 -0.447208 -0.000003
vn -0.276398 -0.447207 -0.850652
vn -0.276391 -0.447210 0.850653
vn -0.723605 0.447209 -0.525737
vn -0.259657 0.542189 0.799130
vn 0.679778 0.542192 -0.493894
vn -0.259657 0.542189 -0.799130
vn 0.679778 0.542191 0.493894
vn 0.840256 -0.542190 -0.000000
vn 0.000000 0.000000 0.000000
vn -0.230803 -0.958442 0.167687
vn 0.088158 -0.958442 -0.271324
vn 0.821811 0.567379 0.052045
vn -0.634274 0.567368 -0.525157
vn -0.695453 0.567373 -0.440946
vn 0.285283 -0.958443 -0.000000
vn 0.204453 0.567378 -0.797672
vn 0.303449 0.567372 0.765512
vn 0.204453 0.567378 0.797672
vn 0.821811 0.567379 -0.052045
vn -0.634274 0.567368 0.525158
vn -0.230803 -0.958442 -0.167687
vn 0.088158 -0.958442 0.271324
vn -0.695453 0.567373 0.440946
vn 0.303449 0.567372 -0.765512
usemtl Material.007
s off
f 1//1 2//1 3//1
f 4//2 2//2 5//2
f 1//3 3//3 6//3
f 1//4 6//4 7//4
f 1//5 7//5 8//5
f 9//6 10//6 11//6 12//6
f 13//7 14//7 15//7 16//7
f 17//7 13//7 16//7 18//7
f 19//8 20//8 21//8 22//8
f 23//9 24//9 25//9 26//9
f 4//10 13//10 17//10
f 23//11 27//11 9//11
f 19//12 28//12 20//12
f 29//13 30//13 31//13
f 32//14 33//14 14//14
f 34//15 35//15 36//15
f 10//16 37//16 38//16
f 39//17 40//17 41//17
f 42//18 43//18 44//18
f 45//19 46//19 47//19
f 3//20 24//20 23//20
f 35//21 47//21 48//21 49//21
f 2//22 4//22 24//22
f 5//23 8//23 32//23
f 2//24 24//24 25//24 50//24
f 2//25 1//25 8//25
f 6//26 51//26 19//26
f 30//27 29//27 52//27 53//27
f 3//28 23//28 51//28
f 7//29 54//29 29//29
f 27//7 17//7 18//7 55//7
f 6//30 19//30 54//30
f 8//31 56//31 32//31
f 9//7 27//7 55//7 12//7
f 7//32 29//32 56//32
f 42//33 33//33 57//33 58//33
f 13//34 5//34 14//34
f 4//35 5//35 59//35 60//35
f 37//36 36//36 61//36 62//36
f 27//37 24//37 17//37
f 2//38 8//38 63//38 50//38
f 28//7 9//7 12//7 64//7
f 28//39 51//39 9//39
f 20//7 28//7 64//7 21//7
f 29//40 54//40 65//40 52//40
f 30//41 54//41 20//41
f 40//42 38//42 66//42 67//42
f 3//43 51//43 68//43 69//43
f 33//44 56//44 31//44
f 30//7 20//7 21//7 53//7
f 17//45 35//45 34//45
f 56//46 29//46 52//46 70//46
f 13//47 45//47 35//47
f 9//48 37//48 10//48
f 31//7 30//7 53//7 71//7
f 27//49 34//49 37//49
f 20//50 40//50 39//50
f 14//51 45//51 72//51 15//51
f 28//52 10//52 40//52
f 31//53 43//53 42//53
f 43//54 41//54 73//54 74//54
f 30//55 39//55 43//55
f 14//56 46//56 45//56
f 6//57 54//57 65//57 75//57
f 33//58 42//58 46//58
f 36//59 47//59 76//59
f 33//7 31//7 71//7 57//7
f 35//60 45//60 47//60
f 38//61 36//61 76//61
f 4//27 17//27 18//27 60//27
f 37//62 34//62 36//62
f 41//63 38//63 76//63
f 14//7 33//7 57//7 15//7
f 40//64 10//64 38//64
f 44//65 41//65 76//65
f 27//66 23//66 26//66 55//66
f 43//67 39//67 41//67
f 47//68 44//68 76//68
f 46//69 44//69 77//69 78//69
f 46//70 42//70 44//70
f 60//71 59//71 16//71
f 26//72 25//72 55//72
f 22//73 68//73 64//73
f 52//74 65//74 53//74
f 79//75 70//75 57//75
f 69//76 50//76 25//76
f 59//77 50//77 63//77
f 75//78 69//78 68//78
f 80//79 75//79 65//79
f 63//80 80//80 70//80
f 81//81 82//81 83//81
f 59//82 79//82 15//82
f 84//83 81//83 83//83
f 25//84 60//84 18//84
f 85//85 84//85 83//85
f 68//86 26//86 12//86
f 86//87 85//87 83//87
f 65//88 22//88 21//88
f 82//89 86//89 83//89
f 70//90 52//90 71//90
f 18//91 16//91 49//91
f 12//92 55//92 62//92
f 21//93 64//93 67//93
f 71//94 53//94 74//94
f 15//95 57//95 78//95
f 61//96 49//96 48//96
f 66//97 62//97 61//97
f 73//98 67//98 66//98
f 77//99 74//99 73//99
f 48//100 78//100 77//100
f 33//101 46//101 78//101 57//101
f 34//66 27//66 55//66 87//66
f 56//102 33//102 57//102 70//102
f 56//103 8//103 63//103 70//103
f 44//104 47//104 48//104 77//104
f 13//105 4//105 60//105 16//105
f 30//106 43//106 74//106 53//106
f 32//107 14//107 15//107 79//107
f 54//108 30//108 53//108 65//108
f 54//109 7//109 80//109 65//109
f 41//110 44//110 77//110 73//110
f 28//111 40//111 67//111 64//111
f 54//112 19//112 22//112 65//112
f 51//113 28//113 64//113 68//113
f 51//114 6//114 75//114 68//114
f 38//115 41//115 73//115 66//115
f 19//116 51//116 68//116 22//116
f 27//117 37//117 62//117 55//117
f 5//35 32//35 79//35 59//35
f 24//117 27//117 55//117 25//117
f 31//66 42//66 58//66 71//66
f 8//118 5//118 59//118 63//118
f 36//119 38//119 66//119 61//119
f 39//27 30//27 53//27 88//27
f 13//120 35//120 49//120 16//120
f 24//121 4//121 60//121 25//121
f 5//122 13//122 16//122 59//122
f 28//51 19//51 22//51 64//51
f 24//123 3//123 69//123 25//123
f 47//124 36//124 61//124 48//124
f 23//33 9//33 12//33 26//33
f 31//117 56//117 70//117 71//117
f 8//125 7//125 80//125 63//125
f 47//126 46//126 78//126 48//126
f 17//27 34//27 87//27 18//27
f 46//113 14//113 15//113 78//113
f 45//8 13//8 16//8 72//8
f 20//120 54//120 65//120 21//120
f 7//127 6//127 75//127 80//127
f 44//128 43//128 74//128 77//128
f 32//129 56//129 70//129 79//129
f 43//117 31//117 71//117 74//117
f 9//101 51//101 68//101 12//101
f 6//130 3//130 69//130 75//130
f 41//131 40//131 67//131 73//131
f 40//122 20//122 21//122 67//122
f 51//132 23//132 26//132 68//132
f 17//106 24//106 25//106 18//106
f 33//6 32//6 79//6 57//6
f 5//133 2//133 50//133 59//133
f 38//134 37//134 62//134 66//134
f 29//66 31//66 71//66 52//66
f 37//102 9//102 12//102 62//102
f 14//111 5//111 59//111 15//111
f 20//105 39//105 88//105 21//105
f 3//135 2//135 50//135 69//135
f 36//136 35//136 49//136 61//136
f 10//107 28//107 64//107 11//107
f 35//108 17//108 18//108 49//108
f 7//137 56//137 70//137 80//137
f 63//138 80//138 89//138
f 75//139 69//139 89//139
f 69//140 50//140 89//140
f 80//141 75//141 89//141
f 63//142 50//142 89//142
f 61//143 66//143 84//143 85//143
f 66//143 73//143 81//143 84//143
f 73//143 77//143 82//143 81//143
f 77//143 48//143 86//143 82//143
f 48//143 61//143 85//143 86//143
f 64//144 12//144 90//144
f 57//145 71//145 91//145
f 18//146 87//146 92//146
f 71//147 58//147 91//147
f 11//148 64//148 90//148
f 16//149 15//149 93//149
f 88//150 53//150 94//150
f 72//151 16//151 93//151
f 12//152 11//152 90//152
f 58//153 57//153 91//153
f 87//154 55//154 92//154
f 53//155 21//155 94//155
f 55//156 18//156 92//156
f 21//157 88//157 94//157
f 15//158 72//158 93//158
