# Blender v2.66 (sub 1) OBJ File: ''
# www.blender.org
mtllib player.mtl
o Icosphere.004
v 0.500000 -0.270000 -0.500000
v 0.614837 -0.229676 -0.416567
v 0.456137 -0.229676 -0.365002
v 0.695374 -0.120749 -0.358055
v 0.729675 -0.141949 -0.500000
v 0.358053 -0.229676 -0.500000
v 0.456137 -0.229676 -0.634999
v 0.614837 -0.229676 -0.583433
v 0.341298 -0.000000 -0.281565
v 0.304626 0.120749 -0.358054
v 0.235175 0.163672 -0.307596
v 0.284883 -0.000000 -0.203917
v 0.756785 -0.000000 -0.416566
v 0.756785 0.000000 -0.583434
v 0.848067 0.000000 -0.613092
v 0.848067 -0.000000 -0.386908
v 0.658702 -0.000000 -0.281565
v 0.715117 -0.000000 -0.203917
v 0.258505 -0.120749 -0.500000
v 0.243215 0.000000 -0.583434
v 0.151933 0.000000 -0.613092
v 0.172659 -0.163671 -0.500000
v 0.425376 -0.120749 -0.270325
v 0.570975 -0.141949 -0.281566
v 0.596205 -0.192408 -0.203919
v 0.398848 -0.163673 -0.188681
v 0.500000 -0.000000 -0.230000
v 0.243215 -0.000000 -0.416566
v 0.425376 -0.120749 -0.729676
v 0.341298 0.000000 -0.718435
v 0.500000 0.000000 -0.770000
v 0.695374 -0.120749 -0.641946
v 0.658702 0.000000 -0.718435
v 0.574624 0.120749 -0.270324
v 0.685811 0.141949 -0.365001
v 0.543863 0.229676 -0.365001
v 0.429025 0.141949 -0.281566
v 0.385163 0.229676 -0.416567
v 0.304626 0.120749 -0.641945
v 0.270325 0.141949 -0.500000
v 0.385163 0.229676 -0.583433
v 0.574624 0.120749 -0.729675
v 0.429025 0.141949 -0.718434
v 0.543863 0.229676 -0.634998
v 0.741495 0.120749 -0.500000
v 0.685811 0.141949 -0.634999
v 0.641947 0.229676 -0.500000
v 0.692406 0.311320 -0.500000
v 0.751862 0.192408 -0.317012
v 0.655659 -0.311321 -0.386909
v 0.314189 -0.141949 -0.365001
v 0.398848 -0.163673 -0.811319
v 0.284883 0.000000 -0.796083
v 0.314189 -0.141949 -0.634999
v 0.500000 -0.000000 -0.134022
v 0.570975 -0.141949 -0.718434
v 0.715117 0.000000 -0.796083
v 0.601152 0.163673 -0.811319
v 0.811319 -0.192408 -0.500000
v 0.764825 -0.163673 -0.307596
v 0.559456 0.311321 -0.317013
v 0.403795 0.192408 -0.203919
v 0.655659 -0.311321 -0.613091
v 0.151933 -0.000000 -0.386908
v 0.248138 -0.192408 -0.682988
v 0.344341 0.311321 -0.386909
v 0.188681 0.192408 -0.500000
v 0.248138 -0.192408 -0.317012
v 0.440544 -0.311321 -0.317013
v 0.596205 -0.192408 -0.796081
v 0.500000 0.000000 -0.865978
v 0.827341 0.163671 -0.500000
v 0.344341 0.311321 -0.613091
v 0.403795 0.192408 -0.796081
v 0.307594 -0.311320 -0.500000
v 0.500000 0.270000 -0.500000
v 0.559456 0.311321 -0.682987
v 0.751862 0.192408 -0.682988
v 0.764825 -0.163672 -0.692404
v 0.440544 -0.311321 -0.682987
v 0.344341 0.311321 -0.613091
v 0.559456 0.311321 -0.682987
v 0.499999 0.552551 -0.500000
v 0.344341 0.311321 -0.386909
v 0.559456 0.311321 -0.317013
v 0.692406 0.311320 -0.500000
v 0.601152 0.163673 -0.188681
v 0.235175 0.163673 -0.692404
v 0.500001 -0.552551 -0.500000
v 0.070123 0.054557 -0.187678
v 0.664198 0.054558 -1.005350
v 0.664198 0.054557 0.005350
v 1.031357 0.054557 -0.500000
v 0.070123 0.054558 -0.812322
vn 0.102381 -0.943523 0.315093
vn 0.700224 -0.661699 0.268032
vn -0.268031 -0.943523 0.194740
vn -0.268031 -0.943523 -0.194739
vn 0.102382 -0.943523 -0.315092
vn 0.688188 0.525732 0.500004
vn 0.000000 -1.000000 -0.000000
vn -0.262862 0.525725 0.809022
vn -0.162461 -0.850646 -0.500008
vn 0.802610 -0.125631 0.583124
vn -0.306569 -0.125629 0.943522
vn -0.992078 -0.125624 -0.000000
vn -0.306568 -0.125628 -0.943522
vn 0.802611 -0.125627 -0.583125
vn 0.408946 0.661698 0.628426
vn -0.471299 0.661701 0.583120
vn -0.700224 0.661699 -0.268032
vn 0.038531 0.661703 -0.748775
vn 0.724042 0.661695 -0.194737
vn -0.038531 -0.661703 0.748775
vn 0.723608 -0.447212 -0.525730
vn 0.471302 -0.661699 0.583119
vn 0.700224 -0.661700 -0.268031
vn 0.894431 0.447206 -0.000004
vn 0.331306 -0.943523 -0.000000
vn -0.724042 -0.661695 0.194737
vn 0.688189 0.525731 -0.500002
vn -0.408944 -0.661701 0.628424
vn -0.408946 -0.661698 -0.628426
vn -0.724042 -0.661695 -0.194737
vn 0.471299 -0.661701 -0.583120
vn -0.038530 -0.661699 -0.748779
vn 0.688190 0.525731 0.500002
vn 0.982246 -0.187598 -0.000000
vn -0.525735 -0.850648 0.000000
vn 0.723604 -0.447209 0.525739
vn 0.303531 -0.187595 0.934172
vn -0.894431 -0.447206 -0.000000
vn -0.794657 -0.187595 0.577346
vn 0.425327 -0.850647 0.309027
vn -0.794657 -0.187594 -0.577346
vn -0.276392 -0.447207 0.850655
vn 0.276392 0.447210 0.850653
vn 0.303530 -0.187594 -0.934172
vn 0.574601 0.330389 0.748784
vn -0.162461 -0.850646 0.500008
vn 0.889698 0.330382 0.315096
vn -0.534577 0.330385 0.777864
vn -0.024746 0.330384 0.943522
vn -0.904989 0.330385 -0.268032
vn -0.262862 0.525725 -0.809022
vn -0.904990 0.330384 0.268030
vn -0.024746 0.330384 -0.943522
vn -0.894431 -0.447206 0.000004
vn -0.534581 0.330388 -0.777861
vn 0.889698 0.330382 -0.315096
vn -0.723608 0.447212 0.525730
vn 0.574601 0.330389 -0.748784
vn 0.268031 0.943523 0.194739
vn 0.724042 0.661695 0.194737
vn -0.102382 0.943523 0.315091
vn 0.688191 0.525731 -0.500000
vn 0.038530 0.661699 0.748779
vn -0.331306 0.943523 0.000000
vn -0.700224 0.661700 0.268031
vn -0.102381 0.943523 -0.315093
vn -0.850659 0.525717 -0.000001
vn -0.471303 0.661699 -0.583119
vn 0.268031 0.943523 -0.194740
vn -0.276393 -0.447210 -0.850653
vn 0.408944 0.661701 -0.628424
vn 0.904989 -0.330385 0.268031
vn 0.024746 -0.330383 0.943522
vn -0.889696 -0.330386 0.315095
vn -0.574601 -0.330390 -0.748783
vn 0.534578 -0.330388 -0.777863
vn 0.187593 -0.794659 0.577344
vn 0.607057 -0.794658 -0.000000
vn -0.491119 -0.794658 0.356820
vn -0.491119 -0.794658 -0.356820
vn 0.187593 -0.794659 -0.577344
vn 0.259657 -0.542188 0.799131
vn 0.904988 -0.330385 -0.268033
vn 0.840257 -0.542188 -0.000000
vn 0.534577 -0.330387 0.777864
vn 0.259657 -0.542188 -0.799131
vn -0.574601 -0.330390 0.748783
vn -0.679778 -0.542192 -0.493892
vn -0.889697 -0.330386 -0.315095
vn -0.679778 -0.542192 0.493892
vn 0.024746 -0.330383 -0.943523
vn 0.794655 0.187597 0.577348
vn -0.303527 0.187595 0.934173
vn -0.982246 0.187598 0.000000
vn -0.303527 0.187595 -0.934173
vn 0.794655 0.187598 -0.577348
vn 0.491119 0.794658 0.356820
vn -0.187593 0.794659 0.577344
vn -0.607057 0.794658 0.000000
vn -0.187593 0.794659 -0.577344
vn 0.491119 0.794658 -0.356820
vn -0.723610 0.447209 -0.525731
vn -0.850659 0.525717 0.000001
vn -0.723611 0.447203 -0.525734
vn 0.894431 0.447206 0.000004
vn -0.723603 0.447212 0.525738
vn -0.262864 0.525720 0.809025
vn -0.723611 0.447203 0.525734
vn -0.262861 0.525723 -0.809024
vn -0.723610 0.447209 0.525731
vn 0.276389 0.447208 -0.850655
vn 0.276397 0.447209 0.850652
vn 0.276390 0.447205 0.850657
vn 0.425326 -0.850648 0.309025
vn 0.276390 0.447210 0.850654
vn -0.723608 0.447212 -0.525730
vn 0.894431 0.447206 0.000000
vn 0.425326 -0.850648 -0.309025
vn 0.894426 0.447215 -0.000000
vn -0.525732 -0.850650 -0.000004
vn 0.276391 0.447207 -0.850655
vn 0.276399 0.447205 -0.850653
vn 0.276390 0.447210 -0.850653
vn -0.162469 -0.850647 -0.500003
vn 0.276390 0.447205 -0.850657
vn -0.723605 0.447210 0.525737
vn -0.723605 0.447210 -0.525738
vn -0.276399 -0.447205 0.850653
vn 0.723608 -0.447212 0.525730
vn 0.688189 0.525732 -0.500002
vn -0.262862 0.525724 0.809022
vn 0.276390 0.447210 -0.850654
vn 0.723605 -0.447210 0.525738
vn 0.723605 -0.447210 -0.525737
vn -0.162465 -0.850648 0.500003
vn 0.894426 0.447215 0.000001
vn 0.723603 -0.447212 -0.525738
vn -0.276392 -0.447206 -0.850655
vn 0.425327 -0.850646 -0.309027
vn 0.276392 0.447206 0.850655
vn -0.894431 -0.447206 -0.000004
vn -0.276397 -0.447209 -0.850652
vn -0.276389 -0.447208 0.850655
vn -0.723604 0.447209 -0.525739
vn -0.259657 0.542188 0.799131
vn 0.679778 0.542192 -0.493892
vn -0.259657 0.542188 -0.799131
vn 0.679778 0.542192 0.493892
vn 0.000000 0.000000 0.000000
vn -0.230801 -0.958443 0.167686
vn 0.088158 -0.958442 -0.271326
vn 0.821810 0.567380 0.052046
vn -0.634276 0.567366 -0.525157
vn -0.695454 0.567372 -0.440945
vn 0.285284 -0.958443 -0.000000
vn 0.204453 0.567380 -0.797671
vn 0.303448 0.567373 0.765511
vn 0.204451 0.567381 0.797671
vn 0.821810 0.567380 -0.052043
vn -0.634274 0.567366 0.525159
vn -0.230805 -0.958441 -0.167689
vn 0.088157 -0.958443 0.271322
vn -0.695454 0.567370 0.440947
vn 0.303448 0.567373 -0.765511
usemtl Material.007
s off
f 1//1 2//1 3//1
f 4//2 2//2 5//2
f 1//3 3//3 6//3
f 1//4 6//4 7//4
f 1//5 7//5 8//5
f 9//6 10//6 11//6 12//6
f 13//7 14//7 15//7 16//7
f 17//7 13//7 16//7 18//7
f 19//8 20//8 21//8 22//8
f 23//9 24//9 25//9 26//9
f 4//10 13//10 17//10
f 23//11 27//11 9//11
f 19//12 28//12 20//12
f 29//13 30//13 31//13
f 32//14 33//14 14//14
f 34//15 35//15 36//15
f 10//16 37//16 38//16
f 39//17 40//17 41//17
f 42//18 43//18 44//18
f 45//19 46//19 47//19
f 3//20 24//20 23//20
f 35//21 47//21 48//21 49//21
f 2//22 4//22 24//22
f 5//23 8//23 32//23
f 2//24 24//24 25//24 50//24
f 2//25 1//25 8//25
f 6//26 51//26 19//26
f 30//27 29//27 52//27 53//27
f 3//28 23//28 51//28
f 7//29 54//29 29//29
f 27//7 17//7 18//7 55//7
f 6//30 19//30 54//30
f 8//31 56//31 32//31
f 9//7 27//7 55//7 12//7
f 7//32 29//32 56//32
f 42//33 33//33 57//33 58//33
f 13//34 5//34 14//34
f 4//35 5//35 59//35 60//35
f 37//36 36//36 61//36 62//36
f 27//37 24//37 17//37
f 2//38 8//38 63//38 50//38
f 28//7 9//7 12//7 64//7
f 28//39 51//39 9//39
f 20//7 28//7 64//7 21//7
f 29//40 54//40 65//40 52//40
f 30//41 54//41 20//41
f 40//42 38//42 66//42 67//42
f 3//43 51//43 68//43 69//43
f 33//44 56//44 31//44
f 30//7 20//7 21//7 53//7
f 17//45 35//45 34//45
f 56//46 29//46 52//46 70//46
f 13//47 45//47 35//47
f 9//48 37//48 10//48
f 31//7 30//7 53//7 71//7
f 27//49 34//49 37//49
f 20//50 40//50 39//50
f 14//51 45//51 72//51 15//51
f 28//52 10//52 40//52
f 31//53 43//53 42//53
f 43//54 41//54 73//54 74//54
f 30//55 39//55 43//55
f 14//56 46//56 45//56
f 6//57 54//57 65//57 75//57
f 33//58 42//58 46//58
f 36//59 47//59 76//59
f 33//7 31//7 71//7 57//7
f 35//60 45//60 47//60
f 38//61 36//61 76//61
f 4//62 17//62 18//62 60//62
f 37//63 34//63 36//63
f 41//64 38//64 76//64
f 14//7 33//7 57//7 15//7
f 40//65 10//65 38//65
f 44//66 41//66 76//66
f 27//67 23//67 26//67 55//67
f 43//68 39//68 41//68
f 47//69 44//69 76//69
f 46//70 44//70 77//70 78//70
f 46//71 42//71 44//71
f 60//72 59//72 16//72
f 26//73 25//73 55//73
f 22//74 68//74 64//74
f 52//75 65//75 53//75
f 79//76 70//76 57//76
f 69//77 50//77 25//77
f 59//78 50//78 63//78
f 75//79 69//79 68//79
f 80//80 75//80 65//80
f 63//81 80//81 70//81
f 81//82 82//82 83//82
f 59//83 79//83 15//83
f 84//84 81//84 83//84
f 25//85 60//85 18//85
f 85//86 84//86 83//86
f 68//87 26//87 12//87
f 86//88 85//88 83//88
f 65//89 22//89 21//89
f 82//90 86//90 83//90
f 70//91 52//91 71//91
f 18//92 16//92 49//92
f 12//93 55//93 62//93
f 21//94 64//94 67//94
f 71//95 53//95 74//95
f 15//96 57//96 78//96
f 61//97 49//97 48//97
f 66//98 62//98 61//98
f 73//99 67//99 66//99
f 77//100 74//100 73//100
f 48//101 78//101 77//101
f 33//102 46//102 78//102 57//102
f 34//103 27//103 55//103 87//103
f 56//104 33//104 57//104 70//104
f 56//105 8//105 63//105 70//105
f 44//106 47//106 48//106 77//106
f 13//107 4//107 60//107 16//107
f 30//108 43//108 74//108 53//108
f 32//109 14//109 15//109 79//109
f 54//110 30//110 53//110 65//110
f 54//111 7//111 80//111 65//111
f 41//112 44//112 77//112 73//112
f 28//113 40//113 67//113 64//113
f 54//114 19//114 22//114 65//114
f 51//115 28//115 64//115 68//115
f 51//116 6//116 75//116 68//116
f 38//117 41//117 73//117 66//117
f 19//118 51//118 68//118 22//118
f 27//119 37//119 62//119 55//119
f 5//120 32//120 79//120 59//120
f 24//119 27//119 55//119 25//119
f 31//67 42//67 58//67 71//67
f 8//121 5//121 59//121 63//121
f 36//122 38//122 66//122 61//122
f 39//62 30//62 53//62 88//62
f 13//123 35//123 49//123 16//123
f 24//124 4//124 60//124 25//124
f 5//125 13//125 16//125 59//125
f 28//51 19//51 22//51 64//51
f 24//126 3//126 69//126 25//126
f 47//127 36//127 61//127 48//127
f 23//33 9//33 12//33 26//33
f 31//119 56//119 70//119 71//119
f 8//128 7//128 80//128 63//128
f 47//129 46//129 78//129 48//129
f 17//130 34//130 87//130 18//130
f 46//115 14//115 15//115 78//115
f 45//131 13//131 16//131 72//131
f 20//132 54//132 65//132 21//132
f 7//133 6//133 75//133 80//133
f 44//134 43//134 74//134 77//134
f 32//135 56//135 70//135 79//135
f 43//136 31//136 71//136 74//136
f 9//102 51//102 68//102 12//102
f 6//137 3//137 69//137 75//137
f 41//138 40//138 67//138 73//138
f 40//125 20//125 21//125 67//125
f 51//139 23//139 26//139 68//139
f 17//108 24//108 25//108 18//108
f 33//6 32//6 79//6 57//6
f 5//140 2//140 50//140 59//140
f 38//141 37//141 62//141 66//141
f 29//103 31//103 71//103 52//103
f 37//104 9//104 12//104 62//104
f 14//113 5//113 59//113 15//113
f 20//107 39//107 88//107 21//107
f 3//142 2//142 50//142 69//142
f 36//143 35//143 49//143 61//143
f 10//109 28//109 64//109 11//109
f 35//110 17//110 18//110 49//110
f 7//144 56//144 70//144 80//144
f 63//145 80//145 89//145
f 75//146 69//146 89//146
f 69//147 50//147 89//147
f 80//148 75//148 89//148
f 63//84 50//84 89//84
f 61//149 66//149 84//149 85//149
f 66//149 73//149 81//149 84//149
f 73//149 77//149 82//149 81//149
f 77//149 48//149 86//149 82//149
f 48//149 61//149 85//149 86//149
f 64//150 12//150 90//150
f 57//151 71//151 91//151
f 18//152 87//152 92//152
f 71//153 58//153 91//153
f 11//154 64//154 90//154
f 16//155 15//155 93//155
f 88//156 53//156 94//156
f 72//157 16//157 93//157
f 12//158 11//158 90//158
f 58//159 57//159 91//159
f 87//160 55//160 92//160
f 53//161 21//161 94//161
f 55//162 18//162 92//162
f 21//163 88//163 94//163
f 15//164 72//164 93//164
