# Blender v2.66 (sub 1) OBJ File: ''
# www.blender.org
mtllib play.mtl
o Text_Mesh
v 0.792000 0.284748 0.035748
v 0.692000 0.284748 0.035748
v 0.576000 0.031748 0.035748
v 0.455000 0.284748 0.035748
v 0.354000 0.284748 0.035748
v 0.528000 -0.068252 0.035748
v 0.375000 -0.394252 0.035748
v 0.474000 -0.394252 0.035748
v 0.338000 -0.084252 0.035748
v 0.333046 -0.087876 0.035748
v 0.328199 -0.091238 0.035748
v 0.323484 -0.094330 0.035748
v 0.318926 -0.097141 0.035748
v 0.314548 -0.099660 0.035748
v 0.310375 -0.101877 0.035748
v 0.306431 -0.103782 0.035748
v 0.302741 -0.105363 0.035748
v 0.299328 -0.106612 0.035748
v 0.296218 -0.107516 0.035748
v 0.293433 -0.108067 0.035748
v 0.291000 -0.108252 0.035748
v 0.288355 -0.108124 0.035748
v 0.285921 -0.107729 0.035748
v 0.283703 -0.107049 0.035748
v 0.281704 -0.106067 0.035748
v 0.279926 -0.104766 0.035748
v 0.278375 -0.103127 0.035748
v 0.277053 -0.101135 0.035748
v 0.275963 -0.098771 0.035748
v 0.275109 -0.096018 0.035748
v 0.274495 -0.092859 0.035748
v 0.274124 -0.089276 0.035748
v 0.274000 -0.085252 0.035748
v 0.274000 0.145748 0.035748
v 0.272531 0.170087 0.035748
v 0.268245 0.192127 0.035748
v 0.261328 0.211904 0.035748
v 0.251963 0.229451 0.035748
v 0.240334 0.244804 0.035748
v 0.226625 0.257998 0.035748
v 0.211020 0.269066 0.035748
v 0.193704 0.278044 0.035748
v 0.174859 0.284966 0.035748
v 0.154671 0.289868 0.035748
v 0.133323 0.292784 0.035748
v 0.111000 0.293748 0.035748
v 0.095082 0.293331 0.035748
v 0.079824 0.292076 0.035748
v 0.065219 0.289982 0.035748
v 0.051259 0.287044 0.035748
v 0.037939 0.283259 0.035748
v 0.025250 0.278623 0.035748
v 0.013186 0.273133 0.035748
v 0.001741 0.266785 0.035748
v -0.009094 0.259576 0.035748
v -0.019324 0.251502 0.035748
v -0.028957 0.242561 0.035748
v -0.038000 0.232748 0.035748
v -0.038000 0.135748 0.035748
v -0.027109 0.147917 0.035748
v -0.015954 0.158938 0.035748
v -0.004563 0.168826 0.035748
v 0.007037 0.177600 0.035748
v 0.018817 0.185276 0.035748
v 0.030750 0.191873 0.035748
v 0.042808 0.197407 0.035748
v 0.054963 0.201896 0.035748
v 0.067187 0.205357 0.035748
v 0.079454 0.207808 0.035748
v 0.091734 0.209266 0.035748
v 0.104000 0.209748 0.035748
v 0.116937 0.209263 0.035748
v 0.128750 0.207785 0.035748
v 0.139437 0.205279 0.035748
v 0.149000 0.201711 0.035748
v 0.157437 0.197045 0.035748
v 0.164750 0.191248 0.035748
v 0.170937 0.184284 0.035748
v 0.176000 0.176118 0.035748
v 0.179937 0.166717 0.035748
v 0.182750 0.156044 0.035748
v 0.184437 0.144066 0.035748
v 0.185000 0.130748 0.035748
v 0.185000 0.106748 0.035748
v 0.106000 0.078748 0.035748
v 0.087865 0.072192 0.035748
v 0.069667 0.065382 0.035748
v 0.051719 0.058107 0.035748
v 0.034333 0.050155 0.035748
v 0.017823 0.041314 0.035748
v 0.002500 0.031373 0.035748
v -0.011323 0.020119 0.035748
v -0.023333 0.007340 0.035748
v -0.033219 -0.007174 0.035748
v -0.040667 -0.023637 0.035748
v -0.045365 -0.042259 0.035748
v -0.047000 -0.063252 0.035748
v -0.046096 -0.077601 0.035748
v -0.043435 -0.091539 0.035748
v -0.039094 -0.104909 0.035748
v -0.033148 -0.117549 0.035748
v -0.025675 -0.129300 0.035748
v -0.016750 -0.140002 0.035748
v -0.006450 -0.149496 0.035748
v 0.005148 -0.157623 0.035748
v 0.017969 -0.164221 0.035748
v 0.031935 -0.169132 0.035748
v 0.046971 -0.172196 0.035748
v 0.063000 -0.173252 0.035748
v 0.073249 -0.172939 0.035748
v 0.083491 -0.171998 0.035748
v 0.093719 -0.170424 0.035748
v 0.103926 -0.168215 0.035748
v 0.114105 -0.165367 0.035748
v 0.124250 -0.161877 0.035748
v 0.134353 -0.157741 0.035748
v 0.144407 -0.152956 0.035748
v 0.154406 -0.147518 0.035748
v 0.164343 -0.141424 0.035748
v 0.174209 -0.134670 0.035748
v 0.184000 -0.127252 0.035748
v 0.186274 -0.134880 0.035748
v 0.189106 -0.141771 0.035748
v 0.192516 -0.147940 0.035748
v 0.196518 -0.153400 0.035748
v 0.201132 -0.158167 0.035748
v 0.206375 -0.162252 0.035748
v 0.212263 -0.165671 0.035748
v 0.218815 -0.168437 0.035748
v 0.226047 -0.170565 0.035748
v 0.233977 -0.172067 0.035748
v 0.242622 -0.172958 0.035748
v 0.252000 -0.173252 0.035748
v 0.258791 -0.173079 0.035748
v 0.265245 -0.172535 0.035748
v 0.271484 -0.171580 0.035748
v 0.277630 -0.170178 0.035748
v 0.283803 -0.168290 0.035748
v 0.290125 -0.165877 0.035748
v 0.296718 -0.162902 0.035748
v 0.303704 -0.159326 0.035748
v 0.311203 -0.155112 0.035748
v 0.319338 -0.150220 0.035748
v 0.328230 -0.144613 0.035748
v 0.338000 -0.138252 0.035748
v 0.185000 -0.073252 0.035748
v 0.178958 -0.078812 0.035748
v 0.172833 -0.083979 0.035748
v 0.166625 -0.088737 0.035748
v 0.160333 -0.093067 0.035748
v 0.153958 -0.096953 0.035748
v 0.147500 -0.100377 0.035748
v 0.140958 -0.103322 0.035748
v 0.134333 -0.105771 0.035748
v 0.127625 -0.107705 0.035748
v 0.120833 -0.109109 0.035748
v 0.113958 -0.109964 0.035748
v 0.107000 -0.110252 0.035748
v 0.097968 -0.109719 0.035748
v 0.089412 -0.108155 0.035748
v 0.081391 -0.105612 0.035748
v 0.073963 -0.102141 0.035748
v 0.067188 -0.097796 0.035748
v 0.061125 -0.092627 0.035748
v 0.055833 -0.086688 0.035748
v 0.051370 -0.080030 0.035748
v 0.047797 -0.072705 0.035748
v 0.045171 -0.064766 0.035748
v 0.043553 -0.056264 0.035748
v 0.043000 -0.047252 0.035748
v 0.044343 -0.034549 0.035748
v 0.048241 -0.022877 0.035748
v 0.054500 -0.012143 0.035748
v 0.062926 -0.002252 0.035748
v 0.073324 0.006888 0.035748
v 0.085500 0.015373 0.035748
v 0.099259 0.023295 0.035748
v 0.114407 0.030748 0.035748
v 0.130750 0.037826 0.035748
v 0.148093 0.044623 0.035748
v 0.166241 0.051232 0.035748
v 0.185000 0.057748 0.035748
v -0.138000 0.517748 0.035748
v -0.227000 0.517748 0.035748
v -0.227000 -0.164252 0.035748
v -0.138000 -0.164252 0.035748
v -0.646000 -0.153252 0.035748
v -0.637641 -0.156587 0.035748
v -0.629542 -0.159595 0.035748
v -0.621672 -0.162284 0.035748
v -0.614000 -0.164660 0.035748
v -0.606495 -0.166730 0.035748
v -0.599125 -0.168502 0.035748
v -0.591859 -0.169983 0.035748
v -0.584667 -0.171178 0.035748
v -0.577516 -0.172096 0.035748
v -0.570375 -0.172743 0.035748
v -0.563214 -0.173126 0.035748
v -0.556000 -0.173252 0.035748
v -0.523575 -0.171305 0.035748
v -0.492931 -0.165590 0.035748
v -0.464266 -0.156299 0.035748
v -0.437778 -0.143623 0.035748
v -0.413665 -0.127752 0.035748
v -0.392125 -0.108877 0.035748
v -0.373356 -0.087190 0.035748
v -0.357556 -0.062882 0.035748
v -0.344922 -0.036143 0.035748
v -0.335653 -0.007164 0.035748
v -0.329946 0.023863 0.035748
v -0.328000 0.056748 0.035748
v -0.329846 0.092324 0.035748
v -0.335352 0.125026 0.035748
v -0.344469 0.154810 0.035748
v -0.357148 0.181637 0.035748
v -0.373342 0.205463 0.035748
v -0.393000 0.226248 0.035748
v -0.416075 0.243949 0.035748
v -0.442519 0.258526 0.035748
v -0.472281 0.269935 0.035748
v -0.505315 0.278137 0.035748
v -0.541571 0.283088 0.035748
v -0.581000 0.284748 0.035748
v -0.735000 0.284748 0.035748
v -0.735000 -0.394252 0.035748
v -0.646000 -0.394252 0.035748
v -0.646000 0.204748 0.035748
v -0.565000 0.204748 0.035748
v -0.541751 0.203631 0.035748
v -0.520505 0.200317 0.035748
v -0.501266 0.194857 0.035748
v -0.484037 0.187303 0.035748
v -0.468822 0.177708 0.035748
v -0.455625 0.166123 0.035748
v -0.444449 0.152600 0.035748
v -0.435296 0.137192 0.035748
v -0.428172 0.119951 0.035748
v -0.423079 0.100928 0.035748
v -0.420020 0.080177 0.035748
v -0.419000 0.057748 0.035748
v -0.420229 0.036501 0.035748
v -0.423829 0.016354 0.035748
v -0.429672 -0.002549 0.035748
v -0.437630 -0.020067 0.035748
v -0.447574 -0.036057 0.035748
v -0.459375 -0.050377 0.035748
v -0.472906 -0.062885 0.035748
v -0.488037 -0.073437 0.035748
v -0.504641 -0.081893 0.035748
v -0.522588 -0.088109 0.035748
v -0.541751 -0.091943 0.035748
v -0.562000 -0.093252 0.035748
v -0.569019 -0.093107 0.035748
v -0.576069 -0.092674 0.035748
v -0.583141 -0.091955 0.035748
v -0.590222 -0.090956 0.035748
v -0.597304 -0.089679 0.035748
v -0.604375 -0.088127 0.035748
v -0.611425 -0.086305 0.035748
v -0.618445 -0.084215 0.035748
v -0.625422 -0.081862 0.035748
v -0.632347 -0.079248 0.035748
v -0.639210 -0.076377 0.035748
v -0.646000 -0.073252 0.035748
vn -0.000000 0.000000 1.000000
vn -0.000001 0.000019 1.000000
vn -0.000000 0.000028 1.000000
vn 0.000000 -0.000005 1.000000
vn 0.000000 -0.000001 1.000000
vn 0.000000 0.000005 1.000000
vn -0.000000 -0.000004 1.000000
vn -0.000000 0.000002 1.000000
vn -0.000000 0.000001 1.000000
vn -0.000000 0.000004 1.000000
vn 0.000002 0.000002 1.000000
vn -0.000000 0.000003 1.000000
vn -0.000000 -0.000002 1.000000
vn 0.000000 -0.000003 1.000000
vn -0.000001 0.000001 1.000000
vn 0.000001 -0.000001 1.000000
vn 0.000004 0.000115 1.000000
usemtl None
s off
f 6//1 4//1 5//1
f 6//1 3//1 4//1
f 3//1 1//1 2//1
f 3//1 8//1 1//1
f 6//1 8//1 3//1
f 7//1 8//1 6//1
f 47//2 45//2 46//2
f 48//3 45//3 47//3
f 48//1 44//1 45//1
f 49//1 44//1 48//1
f 50//1 44//1 49//1
f 50//4 43//4 44//4
f 51//5 43//5 50//5
f 51//6 42//6 43//6
f 52//1 42//1 51//1
f 53//4 42//4 52//4
f 53//1 41//1 42//1
f 54//6 41//6 53//6
f 54//1 40//1 41//1
f 55//7 40//7 54//7
f 56//1 40//1 55//1
f 56//5 39//5 40//5
f 57//8 39//8 56//8
f 57//1 38//1 39//1
f 58//1 38//1 57//1
f 59//1 60//1 58//1
f 60//1 61//1 58//1
f 61//1 62//1 58//1
f 62//1 63//1 58//1
f 63//1 64//1 58//1
f 64//1 65//1 58//1
f 65//1 66//1 58//1
f 66//1 67//1 58//1
f 67//1 68//1 58//1
f 68//1 69//1 58//1
f 69//1 38//1 58//1
f 69//1 70//1 38//1
f 70//1 71//1 38//1
f 71//1 37//1 38//1
f 71//1 72//1 37//1
f 72//1 36//1 37//1
f 73//1 36//1 72//1
f 74//1 36//1 73//1
f 75//1 36//1 74//1
f 76//1 36//1 75//1
f 77//1 36//1 76//1
f 77//1 35//1 36//1
f 78//1 35//1 77//1
f 79//1 35//1 78//1
f 80//1 35//1 79//1
f 80//1 34//1 35//1
f 81//1 34//1 80//1
f 82//1 34//1 81//1
f 82//1 33//1 34//1
f 83//1 33//1 82//1
f 84//1 33//1 83//1
f 85//1 182//1 84//1
f 182//1 33//1 84//1
f 86//1 182//1 85//1
f 87//1 182//1 86//1
f 88//1 182//1 87//1
f 89//1 182//1 88//1
f 89//1 181//1 182//1
f 146//1 33//1 182//1
f 89//1 180//1 181//1
f 90//1 180//1 89//1
f 90//1 179//1 180//1
f 91//1 179//1 90//1
f 91//1 178//1 179//1
f 92//1 178//1 91//1
f 92//1 177//1 178//1
f 92//1 176//1 177//1
f 93//1 176//1 92//1
f 93//1 175//1 176//1
f 94//1 175//1 93//1
f 94//1 174//1 175//1
f 94//1 173//1 174//1
f 95//1 173//1 94//1
f 95//1 172//1 173//1
f 95//1 171//1 172//1
f 96//1 171//1 95//1
f 96//1 170//1 171//1
f 97//1 170//1 96//1
f 97//1 169//1 170//1
f 97//1 168//1 169//1
f 98//1 168//1 97//1
f 98//1 167//1 168//1
f 98//1 166//1 167//1
f 147//1 33//1 146//1
f 99//1 166//1 98//1
f 148//1 33//1 147//1
f 99//1 165//1 166//1
f 149//1 33//1 148//1
f 10//9 145//9 9//9
f 149//1 32//1 33//1
f 99//1 164//1 165//1
f 11//9 145//9 10//9
f 150//1 32//1 149//1
f 150//1 31//1 32//1
f 12//9 145//9 11//9
f 100//9 164//9 99//9
f 100//1 163//1 164//1
f 150//1 30//1 31//1
f 151//1 30//1 150//1
f 13//9 145//9 12//9
f 151//6 29//6 30//6
f 152//10 29//10 151//10
f 14//11 145//11 13//11
f 100//12 162//12 163//12
f 152//1 28//1 29//1
f 15//1 145//1 14//1
f 153//1 28//1 152//1
f 153//1 27//1 28//1
f 16//1 145//1 15//1
f 100//1 161//1 162//1
f 153//1 26//1 27//1
f 154//1 26//1 153//1
f 17//1 145//1 16//1
f 154//1 25//1 26//1
f 101//1 161//1 100//1
f 18//1 145//1 17//1
f 101//1 160//1 161//1
f 155//1 25//1 154//1
f 155//1 24//1 25//1
f 19//1 145//1 18//1
f 155//1 23//1 24//1
f 20//1 145//1 19//1
f 156//1 23//1 155//1
f 156//1 22//1 23//1
f 21//1 145//1 20//1
f 156//1 21//1 22//1
f 101//1 159//1 160//1
f 156//1 145//1 21//1
f 157//1 145//1 156//1
f 101//1 158//1 159//1
f 158//1 145//1 157//1
f 101//1 121//1 158//1
f 121//5 145//5 158//5
f 102//5 121//5 101//5
f 102//1 120//1 121//1
f 122//13 145//13 121//13
f 103//9 120//9 102//9
f 103//1 119//1 120//1
f 123//8 145//8 122//8
f 123//13 144//13 145//13
f 104//1 119//1 103//1
f 104//1 118//1 119//1
f 124//1 144//1 123//1
f 124//1 143//1 144//1
f 104//14 117//14 118//14
f 125//1 143//1 124//1
f 105//8 117//8 104//8
f 125//1 142//1 143//1
f 105//12 116//12 117//12
f 126//1 142//1 125//1
f 126//1 141//1 142//1
f 106//13 116//13 105//13
f 106//7 115//7 116//7
f 127//7 141//7 126//7
f 127//1 140//1 141//1
f 106//10 114//10 115//10
f 128//1 140//1 127//1
f 128//1 139//1 140//1
f 107//1 114//1 106//1
f 107//1 113//1 114//1
f 129//6 139//6 128//6
f 129//1 138//1 139//1
f 107//1 112//1 113//1
f 129//1 137//1 138//1
f 130//1 137//1 129//1
f 108//1 112//1 107//1
f 130//1 136//1 137//1
f 108//1 111//1 112//1
f 131//1 136//1 130//1
f 131//1 135//1 136//1
f 108//1 110//1 111//1
f 132//1 135//1 131//1
f 109//1 110//1 108//1
f 132//1 134//1 135//1
f 133//1 134//1 132//1
f 185//1 183//1 184//1
f 185//1 186//1 183//1
f 225//1 227//1 224//1
f 227//1 223//1 224//1
f 227//15 222//15 223//15
f 227//16 221//16 222//16
f 227//15 220//15 221//15
f 227//5 219//5 220//5
f 227//9 218//9 219//9
f 227//1 217//1 218//1
f 227//1 216//1 217//1
f 227//1 228//1 216//1
f 228//1 229//1 216//1
f 229//1 215//1 216//1
f 225//1 264//1 227//1
f 230//1 215//1 229//1
f 231//1 215//1 230//1
f 232//1 215//1 231//1
f 233//1 215//1 232//1
f 233//1 214//1 215//1
f 234//1 214//1 233//1
f 235//1 214//1 234//1
f 235//1 213//1 214//1
f 236//1 213//1 235//1
f 237//1 213//1 236//1
f 237//1 212//1 213//1
f 238//1 212//1 237//1
f 239//9 212//9 238//9
f 239//1 211//1 212//1
f 240//1 211//1 239//1
f 241//1 211//1 240//1
f 241//1 210//1 211//1
f 242//1 210//1 241//1
f 242//1 209//1 210//1
f 243//1 209//1 242//1
f 244//1 209//1 243//1
f 244//1 208//1 209//1
f 245//1 208//1 244//1
f 246//1 208//1 245//1
f 246//1 207//1 208//1
f 247//1 207//1 246//1
f 247//1 206//1 207//1
f 248//1 206//1 247//1
f 225//1 263//1 264//1
f 249//1 206//1 248//1
f 225//1 262//1 263//1
f 225//1 261//1 262//1
f 225//15 187//15 261//15
f 187//1 260//1 261//1
f 250//1 206//1 249//1
f 187//1 259//1 260//1
f 187//1 258//1 259//1
f 250//9 205//9 206//9
f 251//1 205//1 250//1
f 187//1 257//1 258//1
f 187//1 256//1 257//1
f 187//1 255//1 256//1
f 252//9 205//9 251//9
f 187//1 254//1 255//1
f 187//1 253//1 254//1
f 187//1 252//1 253//1
f 187//1 205//1 252//1
f 187//9 204//9 205//9
f 187//5 203//5 204//5
f 187//1 202//1 203//1
f 225//1 226//1 187//1
f 188//1 202//1 187//1
f 188//1 201//1 202//1
f 189//1 201//1 188//1
f 190//1 201//1 189//1
f 191//1 201//1 190//1
f 192//1 201//1 191//1
f 192//1 200//1 201//1
f 193//1 200//1 192//1
f 194//1 200//1 193//1
f 195//1 200//1 194//1
f 196//1 200//1 195//1
f 196//1 199//1 200//1
f 197//1 199//1 196//1
f 198//17 199//17 197//17
