# Blender v2.66 (sub 1) OBJ File: 'consept.blend'
# www.blender.org
mtllib wall.mtl
o Grid.000
v -0.400000 0.400000 0.400000
v -0.400000 0.400000 -0.400000
v 0.400000 0.400000 -0.400000
v 0.400000 0.400000 0.400000
v -0.400000 1.200000 0.400000
v -0.400000 1.200000 -0.400000
v 0.400000 1.200000 -0.400000
v 0.400000 1.200000 0.400000
vn -1.000000 0.000000 0.000000
vn 0.000000 0.000000 -1.000000
vn 1.000000 -0.000000 0.000000
vn 0.000000 0.000000 1.000000
vn 0.000000 -1.000000 0.000000
vn 0.000000 1.000000 0.000000
usemtl Material.006
s off
f 5//1 6//1 2//1
f 6//2 7//2 3//2
f 7//3 8//3 4//3
f 8//4 5//4 1//4
f 1//5 2//5 3//5
f 8//6 7//6 6//6
f 1//1 5//1 2//1
f 2//2 6//2 3//2
f 3//3 7//3 4//3
f 4//4 8//4 1//4
f 4//5 1//5 3//5
f 5//6 8//6 6//6
