# Blender v2.66 (sub 1) OBJ File: 'consept.blend'
# www.blender.org
mtllib wall.mtl
o Grid.013_Grid.016
v 2.100000 0.384969 -4.100000
v 2.100000 0.384969 -4.900000
v 2.900000 0.384969 -4.900000
v 2.900000 0.384969 -4.100000
v 2.100000 1.184969 -4.100000
v 2.100000 1.184969 -4.900000
v 2.900000 1.184969 -4.900000
v 2.900000 1.184969 -4.100000
v 3.000000 0.335415 -4.000000
v 2.000000 0.335415 -4.000000
v 3.000000 0.335415 -5.000000
v 2.000000 0.335415 -5.000000
v 3.000000 0.534876 -4.000000
v 2.000000 0.534876 -4.000000
v 3.000000 0.534876 -5.000000
v 2.000000 0.534876 -5.000000
v 3.000000 0.772695 -4.000000
v 2.000000 0.772695 -4.000000
v 3.000000 0.772695 -5.000000
v 2.000000 0.772695 -5.000000
v 3.000000 1.018185 -4.000000
v 2.000000 1.018185 -4.000000
v 3.000000 1.018185 -5.000000
v 2.000000 1.018185 -5.000000
v 3.000000 1.263675 -4.000000
v 2.000000 1.263675 -4.000000
v 3.000000 1.263675 -5.000000
v 2.000000 1.263675 -5.000000
vn 0.000000 1.000000 -0.000000
vn -1.000000 0.000000 0.000000
vn 0.000000 0.000000 -1.000000
vn 1.000000 -0.000000 0.000000
vn 0.000000 -0.000000 1.000000
vn -0.000000 -1.000000 0.000000
usemtl Material.005
s off
f 10//1 9//1 11//1 12//1
f 14//1 13//1 15//1 16//1
f 18//1 17//1 19//1 20//1
f 22//1 21//1 23//1 24//1
f 26//1 25//1 27//1 28//1
usemtl Material.006
f 5//2 6//2 2//2 1//2
f 6//3 7//3 3//3 2//3
f 7//4 8//4 4//4 3//4
f 8//5 5//5 1//5 4//5
f 1//6 2//6 3//6 4//6
f 8//1 7//1 6//1 5//1
