# Blender v2.66 (sub 1) OBJ File: ''
# www.blender.org
mtllib wallARM.mtl
o ground.001_Grid.000
v -0.500000 1.200000 0.500000
v 0.500000 1.200000 0.500000
v 0.500000 1.200000 -0.500000
v -0.500000 1.200000 -0.500000
v -0.500000 1.000000 0.500000
v 0.500000 1.000000 0.500000
v 0.500000 1.000000 -0.500000
v -0.500000 1.000000 -0.500000
v -0.500000 0.800000 0.500000
v 0.500000 0.800000 0.500000
v 0.500000 0.800000 -0.500000
v -0.500000 0.800000 -0.500000
v -0.500000 0.600000 0.500000
v 0.500000 0.600000 0.500000
v 0.500000 0.600000 -0.500000
v -0.500000 0.600000 -0.500000
v -0.500000 0.400000 0.500000
v 0.500000 0.400000 0.500000
v 0.500000 0.400000 -0.500000
v -0.500000 0.400000 -0.500000
vn 0.000000 -1.000000 -0.000000
vn 1.000000 -0.000000 0.000000
vn 0.000000 0.000000 -1.000000
vn -1.000000 0.000000 0.000000
vn 0.000000 -0.000000 1.000000
vn 0.000000 1.000000 0.000000
usemtl Material.004
s off
f 1//1 4//1 3//1 2//1
f 8//2 5//2 9//2 12//2
f 1//3 2//3 6//3 5//3
f 2//4 3//4 7//4 6//4
f 3//5 4//5 8//5 7//5
f 4//2 1//2 5//2 8//2
f 11//5 12//5 16//5 15//5
f 5//3 6//3 10//3 9//3
f 6//4 7//4 11//4 10//4
f 7//5 8//5 12//5 11//5
f 15//5 16//5 20//5 19//5
f 12//2 9//2 13//2 16//2
f 9//3 10//3 14//3 13//3
f 10//4 11//4 15//4 14//4
f 17//6 18//6 19//6 20//6
f 16//2 13//2 17//2 20//2
f 13//3 14//3 18//3 17//3
f 14//4 15//4 19//4 18//4
