# Blender v2.66 (sub 1) OBJ File: 'consept.blend'
# www.blender.org
mtllib wallARM.mtl
o Cube
v 0.500000 0.335415 0.500000
v -0.500000 0.335415 0.500000
v 0.500000 0.335415 -0.500000
v -0.500000 0.335415 -0.500000
v 0.500000 0.534876 0.500000
v -0.500000 0.534876 0.500000
v 0.500000 0.534876 -0.500000
v -0.500000 0.534876 -0.500000
v 0.500000 0.772695 0.500000
v -0.500000 0.772695 0.500000
v 0.500000 0.772695 -0.500000
v -0.500000 0.772695 -0.500000
v 0.500000 1.018185 0.500000
v -0.500000 1.018185 0.500000
v 0.500000 1.018185 -0.500000
v -0.500000 1.018185 -0.500000
v 0.500000 1.263675 0.500000
v -0.500000 1.263675 0.500000
v 0.500000 1.263675 -0.500000
v -0.500000 1.263675 -0.500000
vn -0.000000 1.000000 0.000000
usemtl Material.005
s off
f 2//1 1//1 4//1
f 6//1 5//1 8//1
f 10//1 9//1 12//1
f 14//1 13//1 16//1
f 18//1 17//1 20//1
f 1//1 3//1 4//1
f 5//1 7//1 8//1
f 9//1 11//1 12//1
f 13//1 15//1 16//1
f 17//1 19//1 20//1
